<svg xmlns="http://www.w3.org/2000/svg" viewBox="0 0 100 100" width="100" height="100">
  <defs>
    <linearGradient id="logisticsGradient" x1="0%" y1="0%" x2="100%" y2="100%">
      <stop offset="0%" style="stop-color:#2196F3;stop-opacity:1" />
      <stop offset="100%" style="stop-color:#1565C0;stop-opacity:1" />
    </linearGradient>
    <filter id="shadow" x="-20%" y="-20%" width="140%" height="140%">
      <feDropShadow dx="2" dy="2" stdDeviation="3" flood-color="#000000" flood-opacity="0.3"/>
    </filter>
  </defs>
  
  <!-- Background circle -->
  <circle cx="50" cy="50" r="45" fill="url(#logisticsGradient)" filter="url(#shadow)"/>
  
  <!-- Delivery truck -->
  <rect x="20" y="35" width="35" height="20" fill="white" rx="3"/>
  <rect x="55" y="40" width="15" height="15" fill="white" rx="2"/>
  
  <!-- Truck wheels -->
  <circle cx="30" cy="60" r="6" fill="white"/>
  <circle cx="60" cy="60" r="6" fill="white"/>
  <circle cx="30" cy="60" r="3" fill="#2196F3"/>
  <circle cx="60" cy="60" r="3" fill="#2196F3"/>
  
  <!-- Package -->
  <rect x="25" y="40" width="8" height="8" fill="#2196F3" opacity="0.8"/>
  <path d="M25 44 L33 44 M29 40 L29 48" stroke="white" stroke-width="1"/>
  
  <!-- Route/GPS tracking -->
  <path d="M15 25 Q25 15 35 25 Q45 35 55 25 Q65 15 75 25" 
        stroke="white" stroke-width="2" fill="none" opacity="0.8"/>
  
  <!-- Location pins -->
  <circle cx="15" cy="25" r="4" fill="white"/>
  <circle cx="75" cy="25" r="4" fill="white"/>
  <circle cx="15" cy="25" r="2" fill="#2196F3"/>
  <circle cx="75" cy="25" r="2" fill="#2196F3"/>
  
  <!-- Speed/efficiency indicator -->
  <polygon points="75,75 85,70 85,80" fill="white" opacity="0.9"/>
</svg>