<svg xmlns="http://www.w3.org/2000/svg" viewBox="0 0 100 100" width="100" height="100">
  <defs>
    <linearGradient id="militaryGradient" x1="0%" y1="0%" x2="100%" y2="100%">
      <stop offset="0%" style="stop-color:#FF5722;stop-opacity:1" />
      <stop offset="100%" style="stop-color:#D32F2F;stop-opacity:1" />
    </linearGradient>
    <filter id="shadow" x="-20%" y="-20%" width="140%" height="140%">
      <feDropShadow dx="2" dy="2" stdDeviation="3" flood-color="#000000" flood-opacity="0.3"/>
    </filter>
  </defs>
  
  <!-- Background circle -->
  <circle cx="50" cy="50" r="45" fill="url(#militaryGradient)" filter="url(#shadow)"/>
  
  <!-- Shield shape -->
  <path d="M50 15 L70 25 L70 45 Q70 65 50 80 Q30 65 30 45 L30 25 Z" 
        fill="white" opacity="0.9"/>
  
  <!-- Security lock -->
  <rect x="42" y="40" width="16" height="20" fill="#FF5722" rx="2"/>
  <path d="M45 40 Q45 35 50 35 Q55 35 55 40" 
        stroke="#FF5722" stroke-width="3" fill="none"/>
  
  <!-- Star emblem -->
  <polygon points="50,25 52,31 58,31 53,35 55,41 50,37 45,41 47,35 42,31 48,31" 
           fill="#FF5722"/>
  
  <!-- Security indicators -->
  <circle cx="25" cy="25" r="6" fill="white" opacity="0.8"/>
  <circle cx="75" cy="25" r="6" fill="white" opacity="0.8"/>
  <circle cx="25" cy="25" r="3" fill="#FF5722"/>
  <circle cx="75" cy="25" r="3" fill="#FF5722"/>
</svg>