<svg width="200" height="200" viewBox="0 0 200 200" xmlns="http://www.w3.org/2000/svg">
  <defs>
    <radialGradient id="beanGradient" cx="0.3" cy="0.3" r="0.7">
      <stop offset="0%" stop-color="#8B4513"/>
      <stop offset="100%" stop-color="#5D2F0A"/>
    </radialGradient>
    <radialGradient id="beanGradient2" cx="0.4" cy="0.2" r="0.8">
      <stop offset="0%" stop-color="#A0522D"/>
      <stop offset="100%" stop-color="#654321"/>
    </radialGradient>
  </defs>
  
  <!-- Background circle -->
  <circle cx="100" cy="100" r="95" fill="#F5F5DC" stroke="#DDD" stroke-width="2"/>
  
  <!-- Coffee beans -->
  <ellipse cx="70" cy="80" rx="15" ry="25" fill="url(#beanGradient)" transform="rotate(-20 70 80)"/>
  <path d="M 70 65 Q 70 80 70 95" stroke="#3E2723" stroke-width="2" fill="none"/>
  
  <ellipse cx="130" cy="70" rx="12" ry="20" fill="url(#beanGradient2)" transform="rotate(15 130 70)"/>
  <path d="M 130 58 Q 130 70 130 82" stroke="#3E2723" stroke-width="1.5" fill="none"/>
  
  <ellipse cx="90" cy="120" rx="14" ry="22" fill="url(#beanGradient)" transform="rotate(-45 90 120)"/>
  <path d="M 90 105 Q 90 120 90 135" stroke="#3E2723" stroke-width="2" fill="none"/>
  
  <ellipse cx="140" cy="130" rx="13" ry="21" fill="url(#beanGradient2)" transform="rotate(30 140 130)"/>
  <path d="M 140 116 Q 140 130 140 144" stroke="#3E2723" stroke-width="1.8" fill="none"/>
  
  <ellipse cx="60" cy="140" rx="11" ry="18" fill="url(#beanGradient)" transform="rotate(-10 60 140)"/>
  <path d="M 60 128 Q 60 140 60 152" stroke="#3E2723" stroke-width="1.5" fill="none"/>
  
  <ellipse cx="110" cy="100" rx="16" ry="26" fill="url(#beanGradient2)" transform="rotate(5 110 100)"/>
  <path d="M 110 82 Q 110 100 110 118" stroke="#3E2723" stroke-width="2.2" fill="none"/>
  
  <!-- Steam effect -->
  <path d="M 50 40 Q 55 35 50 30 Q 45 25 50 20" stroke="#DDD" stroke-width="2" fill="none" opacity="0.6"/>
  <path d="M 150 45 Q 155 40 150 35 Q 145 30 150 25" stroke="#DDD" stroke-width="2" fill="none" opacity="0.6"/>
  <path d="M 100 30 Q 105 25 100 20 Q 95 15 100 10" stroke="#DDD" stroke-width="2" fill="none" opacity="0.6"/>
</svg>